<svg id="Layer_1" data-name="Layer 1" xmlns="http://www.w3.org/2000/svg" xmlns:xlink="http://www.w3.org/1999/xlink" viewBox="0 0 644.93 522.78"><defs><style>.cls-1{fill:#a92225;}.cls-2{fill:url(#linear-gradient);}.cls-3{fill:url(#linear-gradient-2);}.cls-4{fill:url(#linear-gradient-3);}.cls-5{fill:url(#linear-gradient-4);}.cls-6{fill:url(#linear-gradient-5);}.cls-7{fill:url(#linear-gradient-6);}.cls-8{fill:url(#linear-gradient-7);}.cls-9{fill:#686765;}</style><linearGradient id="linear-gradient" x1="92.51" y1="84.06" x2="92.51" y2="498.99" gradientUnits="userSpaceOnUse"><stop offset="0" stop-color="#a92225"/><stop offset="0.35" stop-color="#a72427"/><stop offset="0.56" stop-color="#9f2d2f"/><stop offset="0.72" stop-color="#913b3c"/><stop offset="0.87" stop-color="#7f4f4f"/><stop offset="1" stop-color="#686765"/></linearGradient><linearGradient id="linear-gradient-2" x1="172.33" y1="134.26" x2="172.33" y2="498.99" gradientUnits="userSpaceOnUse"><stop offset="0" stop-color="#d3a82a"/><stop offset="0.3" stop-color="#d1a62b"/><stop offset="0.48" stop-color="#c8a130"/><stop offset="0.63" stop-color="#ba9938"/><stop offset="0.76" stop-color="#a68d43"/><stop offset="0.88" stop-color="#8c7d51"/><stop offset="0.99" stop-color="#6c6a63"/><stop offset="1" stop-color="#686765"/></linearGradient><linearGradient id="linear-gradient-3" x1="24.31" y1="398.63" x2="24.31" y2="449.57" gradientUnits="userSpaceOnUse"><stop offset="0" stop-color="#00a796"/><stop offset="0.31" stop-color="#02a595"/><stop offset="0.49" stop-color="#0ba091"/><stop offset="0.64" stop-color="#19988a"/><stop offset="0.77" stop-color="#2d8b81"/><stop offset="0.88" stop-color="#467c75"/><stop offset="0.99" stop-color="#666866"/><stop offset="1" stop-color="#686765"/></linearGradient><linearGradient id="linear-gradient-4" x1="30.2" y1="192.31" x2="30.2" y2="381.11" xlink:href="#linear-gradient-3"/><linearGradient id="linear-gradient-5" x1="105.11" y1="398.63" x2="105.11" y2="449.57" gradientUnits="userSpaceOnUse"><stop offset="0" stop-color="#14b1e7"/><stop offset="0.28" stop-color="#16b0e4"/><stop offset="0.45" stop-color="#1babdc"/><stop offset="0.59" stop-color="#24a3ce"/><stop offset="0.71" stop-color="#3197ba"/><stop offset="0.83" stop-color="#42889f"/><stop offset="0.93" stop-color="#577680"/><stop offset="1" stop-color="#686765"/></linearGradient><linearGradient id="linear-gradient-6" x1="79.83" y1="131.13" x2="79.83" y2="381.11" xlink:href="#linear-gradient-5"/><linearGradient id="linear-gradient-7" x1="133.33" y1="312.7" x2="201.51" y2="312.7" gradientUnits="userSpaceOnUse"><stop offset="0" stop-color="#88817f"/><stop offset="0.44" stop-color="#857f7d"/><stop offset="0.71" stop-color="#7d7876"/><stop offset="0.92" stop-color="#6f6d6b"/><stop offset="1" stop-color="#686765"/></linearGradient></defs><path class="cls-1" d="M201.63,55.36q.76-6.09,1.21-10c.29-2.63.44-4.24.44-4.82a7.61,7.61,0,0,0-1.1-4.22,4,4,0,0,0-3.62-1.7,9.32,9.32,0,0,0-4.33,1.26,17.65,17.65,0,0,0-4.77,4,37.64,37.64,0,0,0-4.71,7.07,59.76,59.76,0,0,0-4.16,10.36l-3.18,23H166.23q.87-7,1.64-12.82t1.43-11.13Q170,51,170.56,45.93c.4-3.4.82-7,1.26-10.8l-10.08-1.64.32-5.59a83.71,83.71,0,0,1,8.44-1.75,47.05,47.05,0,0,1,6.91-.55c2.33,0,3.89.38,4.66,1.15a5.24,5.24,0,0,1,1.15,3.78,42,42,0,0,1-.39,5.15q-.37,3.07-.93,6.69h.44a35.84,35.84,0,0,1,5.53-8.17,32.8,32.8,0,0,1,6-5.15,21.25,21.25,0,0,1,5.59-2.68,16.53,16.53,0,0,1,4.49-.77c4.17,0,7,1.1,8.61,3.29s2.35,5.44,2.35,9.75q0,1.22-.49,6t-1.26,11.5c-.51,4.5-3.07,39.15-3.69,44.41-.08.66-.15,1.29-.22,1.94a53.36,53.36,0,1,0-11.91,3.06c.22-2.19.44-4.38.68-6.48C198.58,93.83,201.12,59.41,201.63,55.36Z"/><path class="cls-2" d="M131.4,105.63a21.58,21.58,0,1,0-26.11,21.09c1.15,19.18,3,52.69,3,74.22,0,18.56-14.32,61.11-25.84,95.29-8.16,24.22-15.2,45.13-17.22,56.74-4.56,26.21-3.65,46.19-2.76,65.51.35,7.76.72,15.78.72,24.08,0,10.62.13,18.7.34,24.88l-9.87,13V499H84.43V480.48l-10-13.14V448.05h-.33c0-1.75,0-3.56,0-5.49,0-8.55-.37-16.7-.73-24.58-.9-19.59-1.74-38.1,2.61-63.13,1.88-10.78,9.13-32.31,16.81-55.11,12.38-36.77,26.42-78.44,26.42-98.8,0-21.72-1.82-55.36-3-74.71A21.6,21.6,0,0,0,131.4,105.63Z"/><path class="cls-3" d="M217.69,155.84a21.58,21.58,0,1,0-26.17,21.07c.27,10.21.25,22.79-.86,32.84-2.18,19.57-17,64.46-27.8,88.57-1.33,3-2.72,6-4.15,9-9.57,20.56-20.41,43.86-21.82,79.7-1.56,39.79,0,71.95,0,72.26h0v8l-10,13.14V499h30.82V480.48l-10-13.14v-8.57h0s0-.33,0-.88v-9.83h-.33c-.33-12.56-.63-35,.38-60.58,1.31-33.63,11.67-55.87,20.8-75.49,1.44-3.1,2.86-6.14,4.21-9.16,10-22.35,26.18-69.25,28.69-91.85,1.2-10.79,1.22-23.94.94-34.52A21.59,21.59,0,0,0,217.69,155.84Z"/><polygon class="cls-4" points="29.76 398.63 18.85 398.63 18.85 417.92 8.9 431.06 8.9 449.57 39.72 449.57 39.72 431.06 29.76 417.92 29.76 398.63"/><path class="cls-5" d="M25.89,235.46a21.6,21.6,0,0,0,4.2-.42c6.63,10.4,14.8,26.26,15,41.68.35,25.69-12.48,70.78-18,90l-1.05,3.7c-1.07,3.79-2,7.35-2.81,10.65H34.6c.59-2.33,1.27-4.86,2.06-7.66l1.05-3.68c6.09-21.39,18.76-65.91,18.38-93.2C55.84,259,47.27,241.72,40,230.15a21.55,21.55,0,1,0-14.13,5.31Z"/><polygon class="cls-6" points="110.56 417.92 110.56 398.63 99.65 398.63 99.65 417.92 89.7 431.06 89.7 449.57 120.52 449.57 120.52 431.06 110.56 417.92"/><path class="cls-7" d="M110.63,381.11c-.53-19-4.23-53.73-17.75-84.33-15-33.85-22.34-54.76-23.86-82a161.58,161.58,0,0,1,3.38-40.58,21.57,21.57,0,1,0-10.84-1.91,171,171,0,0,0-3.5,43.1c1.6,28.79,9.59,51.5,24.78,85.85,11.78,26.66,16.27,59.61,16.83,79.89Z"/><path class="cls-8" d="M191.56,417.92V398.63h0c.07-10.76.11-24.75-.13-31.18-.45-12.7-16.07-47.43-33-68.37C146,283.74,145.09,264,144.33,248.14c-.42-8.84,4.51-21,8.63-29.29a20.35,20.35,0,0,0,2.36.14,21.65,21.65,0,1,0-12.64-4.13c-4.31,8.79-9.86,22.45-9.32,33.8.79,16.54,1.87,39.19,16.51,57.32,15.8,19.56,30.22,52.39,30.56,61.86.22,6.2.19,20.1.11,30.79h-.12v19.29l-9.72,13.14v18.51h30.81V431.06Z"/><path class="cls-9" d="M332.83,294.18a12,12,0,0,1-1,4.93,10.85,10.85,0,0,1-2.67,3.71,11.42,11.42,0,0,1-4,2.31,15.42,15.42,0,0,1-5.08.8,14.41,14.41,0,0,1-5.68-1.08,12,12,0,0,1-4.3-3.07,13.82,13.82,0,0,1-2.72-4.82,20,20,0,0,1-.95-6.36,18.82,18.82,0,0,1,1-6.29,14.07,14.07,0,0,1,2.82-4.88,12.65,12.65,0,0,1,4.42-3.16,14.17,14.17,0,0,1,5.72-1.13,15.16,15.16,0,0,1,4.7.72,12.64,12.64,0,0,1,3.89,2,9.79,9.79,0,0,1,2.63,3,7.8,7.8,0,0,1,1,3.84h-3.89a4.91,4.91,0,0,0-.7-2.61,6.66,6.66,0,0,0-1.86-2,8.21,8.21,0,0,0-2.67-1.24,11.86,11.86,0,0,0-3.16-.42,9.52,9.52,0,0,0-4.08.86,9,9,0,0,0-3.16,2.45,11,11,0,0,0-2,3.81,16.11,16.11,0,0,0-.71,5,16.3,16.3,0,0,0,.71,5,11.66,11.66,0,0,0,2,3.81,8.37,8.37,0,0,0,3.12,2.42,9.8,9.8,0,0,0,4.13.84,10.56,10.56,0,0,0,3.49-.55,8.06,8.06,0,0,0,2.76-1.61,7.15,7.15,0,0,0,1.81-2.65,9.9,9.9,0,0,0,.64-3.67Z"/><path class="cls-9" d="M351.64,305.27V291.81c0-2.07-.34-3.51-1-4.34s-1.9-1.24-3.64-1.24a5.92,5.92,0,0,0-3.49,1,5.57,5.57,0,0,0-2.08,2.83c-.08.27-.16.55-.22.84a8.73,8.73,0,0,0-.13,1c0,.37-.05.81-.07,1.33s0,1.16,0,1.92v10.1h-3.49V275.85h3.4V287a7.89,7.89,0,0,1,7.12-3.71,8.45,8.45,0,0,1,3.9.83,5.74,5.74,0,0,1,2.46,2.39,6.22,6.22,0,0,1,.61,1.94,19.34,19.34,0,0,1,.18,3v13.83Z"/><path class="cls-9" d="M363.26,295.46q.21,7.52,6.62,7.51a9.13,9.13,0,0,0,2.19-.26,6.08,6.08,0,0,0,1.83-.8,3.83,3.83,0,0,0,1.26-1.39,4.25,4.25,0,0,0,.47-2h3.44a6.74,6.74,0,0,1-.75,3.24,6.91,6.91,0,0,1-2,2.32,8.88,8.88,0,0,1-2.94,1.39,13.35,13.35,0,0,1-3.58.47,10.85,10.85,0,0,1-4.21-.78,9,9,0,0,1-3.21-2.18,9.62,9.62,0,0,1-2-3.49,15.52,15.52,0,0,1,0-9.28,11,11,0,0,1,2.06-3.64,9.11,9.11,0,0,1,3.16-2.37,9.7,9.7,0,0,1,4-.83,10,10,0,0,1,4.06.79,8.17,8.17,0,0,1,3.05,2.3,10.58,10.58,0,0,1,1.9,3.66,16.7,16.7,0,0,1,.66,4.86v.53Zm12.41-2.82a6.25,6.25,0,0,0-1.75-4.72,6,6,0,0,0-4.39-1.69,5.67,5.67,0,0,0-4.24,1.62,8.15,8.15,0,0,0-2,4.79Z"/><path class="cls-9" d="M410.21,305.27V291.81a14,14,0,0,0-.22-2.66,4.3,4.3,0,0,0-.71-1.7,2.7,2.7,0,0,0-1.32-.93,6.38,6.38,0,0,0-2-.29,5.43,5.43,0,0,0-3.46,1.13,4.77,4.77,0,0,0-1.79,3c-.06.41-.11.88-.16,1.39s-.06,1.26-.06,2.24v11.29H397V291.54a7.12,7.12,0,0,0-.89-4.11,3.57,3.57,0,0,0-3.09-1.2,5.3,5.3,0,0,0-4.33,1.95,5.11,5.11,0,0,0-1.12,2.21,17,17,0,0,0-.29,3.59v11.29h-3.49V283.93H387V287a9.81,9.81,0,0,1,3.11-2.85,8.07,8.07,0,0,1,3.87-.86,6.7,6.7,0,0,1,3.64.88,6.32,6.32,0,0,1,2.28,2.87,8.16,8.16,0,0,1,7.06-3.75,7.8,7.8,0,0,1,3.36.7,5.34,5.34,0,0,1,2.3,2,5.63,5.63,0,0,1,.84,1.92,13.32,13.32,0,0,1,.22,2.67v14.71Z"/><path class="cls-9" d="M419.53,280.14v-4.29H423v4.29Zm0,25.13V283.93H423v21.34Z"/><path class="cls-9" d="M447.22,297.49a8.3,8.3,0,0,1-.73,3.56,7.82,7.82,0,0,1-2,2.65,8.44,8.44,0,0,1-3,1.63,11.72,11.72,0,0,1-3.65.56,11.09,11.09,0,0,1-4.22-.76A8.45,8.45,0,0,1,430.5,303a9.9,9.9,0,0,1-2-3.47,13.8,13.8,0,0,1-.7-4.55,15.48,15.48,0,0,1,.7-4.81,10.22,10.22,0,0,1,2-3.67,9,9,0,0,1,3.22-2.32,10.81,10.81,0,0,1,4.28-.81,12.79,12.79,0,0,1,3.63.5,8.93,8.93,0,0,1,2.89,1.46,6.64,6.64,0,0,1,1.9,2.36,7.44,7.44,0,0,1,.68,3.23h-3.62a4.38,4.38,0,0,0-.44-2,4.46,4.46,0,0,0-1.22-1.45,5.13,5.13,0,0,0-1.76-.89,7.56,7.56,0,0,0-2.1-.29,5.89,5.89,0,0,0-4.84,2.24,9.56,9.56,0,0,0-1.79,6.13,9.86,9.86,0,0,0,1.71,6.13,5.59,5.59,0,0,0,4.74,2.24,6.74,6.74,0,0,0,2.26-.37,5.92,5.92,0,0,0,1.85-1.06,5,5,0,0,0,1.26-1.71,5.52,5.52,0,0,0,.46-2.34Z"/><path class="cls-9" d="M470.41,305.18a7,7,0,0,1-2.47.44c-2,0-3-1-3.05-3.13a9.47,9.47,0,0,1-3.38,2.6,10.86,10.86,0,0,1-4.35.8,7.22,7.22,0,0,1-5-1.62,5.65,5.65,0,0,1-1.81-4.45q0-5.67,7.55-6.64l3-.4a6.38,6.38,0,0,0,2.91-.86,2.32,2.32,0,0,0,.8-2q0-3.72-4.77-3.72a6.4,6.4,0,0,0-3.91,1,3.87,3.87,0,0,0-1.35,3.31h-3.4a6.49,6.49,0,0,1,2.36-5.35,10.18,10.18,0,0,1,6.52-1.89,12.6,12.6,0,0,1,3.91.57,7.16,7.16,0,0,1,2.76,1.55,4,4,0,0,1,1.06,1.89,14.51,14.51,0,0,1,.26,3.1v10a3.78,3.78,0,0,0,.31,1.79,1.14,1.14,0,0,0,1.06.51,2.33,2.33,0,0,0,.93-.22Zm-5.65-10.95c-.27.17-.51.32-.73.44a4,4,0,0,1-.82.31,12,12,0,0,1-1.24.24l-1.94.24a24.55,24.55,0,0,0-2.94.53,6.45,6.45,0,0,0-1.87.78,2.47,2.47,0,0,0-1,1.14,4.22,4.22,0,0,0-.29,1.62,3.32,3.32,0,0,0,1.13,2.65,4.59,4.59,0,0,0,3.07,1,7.79,7.79,0,0,0,3.42-.75,6.32,6.32,0,0,0,2.5-2.08,3.31,3.31,0,0,0,.57-1.19,8.32,8.32,0,0,0,.14-1.77Z"/><path class="cls-9" d="M474.34,305.27V275.85h3.49v29.42Z"/><path class="cls-9" d="M330,334.77c0,3.41-1.14,5.87-3.4,7.37a9.8,9.8,0,0,1-1.3.75,6.59,6.59,0,0,1-1.42.49,10.49,10.49,0,0,1-1.72.24c-.63.05-1.38.07-2.23.07H312v12.06h-3.89V326.33H319.8c.85,0,1.61,0,2.27.07a11.25,11.25,0,0,1,1.79.24,7.58,7.58,0,0,1,1.46.48,9.92,9.92,0,0,1,1.32.76A7.78,7.78,0,0,1,330,334.77Zm-3.89.22a4.77,4.77,0,0,0-2.34-4.46,5.51,5.51,0,0,0-1.83-.67,20,20,0,0,0-3-.17H312v10.82h7.46a13,13,0,0,0,2.81-.25,4.64,4.64,0,0,0,1.87-.81,4.75,4.75,0,0,0,1.46-1.88A6.23,6.23,0,0,0,326.11,335Z"/><path class="cls-9" d="M345.77,337.42h-1.11a6.2,6.2,0,0,0-4.64,1.85,7.84,7.84,0,0,0-1,1.3,6.68,6.68,0,0,0-.64,1.62,12.22,12.22,0,0,0-.33,2.2c-.06.86-.09,1.89-.09,3.1v8.26H334.5V334.41h3.36v4.46a8.4,8.4,0,0,1,3-3.86,8.82,8.82,0,0,1,4.88-1.22Z"/><path class="cls-9" d="M368.38,345.06c0,3.56-.9,6.34-2.69,8.32a9.6,9.6,0,0,1-7.51,3,11.32,11.32,0,0,1-4.33-.79,9.26,9.26,0,0,1-3.31-2.25,9.72,9.72,0,0,1-2.1-3.56,14.18,14.18,0,0,1-.73-4.7,13.82,13.82,0,0,1,.73-4.64,10,10,0,0,1,2.1-3.56,9.28,9.28,0,0,1,3.29-2.27,11.93,11.93,0,0,1,8.59,0,9,9,0,0,1,3.22,2.25,9.82,9.82,0,0,1,2,3.53A14.57,14.57,0,0,1,368.38,345.06Zm-3.58,0a9.45,9.45,0,0,0-1.79-6.12,6,6,0,0,0-4.92-2.21,6.05,6.05,0,0,0-5,2.26,9.35,9.35,0,0,0-1.83,6.07,9.49,9.49,0,0,0,1.83,6.2,6.23,6.23,0,0,0,5.06,2.21,5.86,5.86,0,0,0,4.86-2.24A9.76,9.76,0,0,0,364.8,345Z"/><path class="cls-9" d="M391.3,348a8.45,8.45,0,0,1-.72,3.56,7.84,7.84,0,0,1-2,2.65,8.61,8.61,0,0,1-3,1.63,11.72,11.72,0,0,1-3.65.55,11.24,11.24,0,0,1-4.21-.75,8.41,8.41,0,0,1-3.18-2.18,10,10,0,0,1-2-3.47,13.79,13.79,0,0,1-.71-4.55,15.43,15.43,0,0,1,.71-4.81,10.12,10.12,0,0,1,2-3.67,9.05,9.05,0,0,1,3.22-2.32,10.87,10.87,0,0,1,4.29-.82,12.42,12.42,0,0,1,3.62.51,8.83,8.83,0,0,1,2.89,1.46,6.64,6.64,0,0,1,1.9,2.36,7.3,7.3,0,0,1,.69,3.23h-3.63a4.23,4.23,0,0,0-.44-2,4.43,4.43,0,0,0-1.21-1.45,5.27,5.27,0,0,0-1.77-.89,7.56,7.56,0,0,0-2.1-.29,5.86,5.86,0,0,0-4.83,2.24,9.5,9.5,0,0,0-1.79,6.13,9.86,9.86,0,0,0,1.7,6.13,5.62,5.62,0,0,0,4.75,2.24,6.73,6.73,0,0,0,2.25-.38A5.63,5.63,0,0,0,386,352a4.81,4.81,0,0,0,1.26-1.7,5.52,5.52,0,0,0,.47-2.34Z"/><path class="cls-9" d="M398.06,345.94q.22,7.51,6.63,7.51a8.62,8.62,0,0,0,2.18-.27,5.89,5.89,0,0,0,1.84-.79A3.72,3.72,0,0,0,410,351a4.29,4.29,0,0,0,.47-2.06h3.44a6.75,6.75,0,0,1-.75,3.25,6.91,6.91,0,0,1-2,2.32,8.83,8.83,0,0,1-2.93,1.39,13.4,13.4,0,0,1-3.58.46,10.91,10.91,0,0,1-4.22-.77,9,9,0,0,1-3.2-2.18,9.48,9.48,0,0,1-2-3.49,15.31,15.31,0,0,1,0-9.28,10.77,10.77,0,0,1,2.05-3.64,9.29,9.29,0,0,1,3.16-2.37,9.58,9.58,0,0,1,4-.84,10.05,10.05,0,0,1,4.07.8,8.13,8.13,0,0,1,3,2.3,10.42,10.42,0,0,1,1.9,3.66,16.7,16.7,0,0,1,.66,4.86v.53Zm12.41-2.83a6.27,6.27,0,0,0-1.74-4.71,6.07,6.07,0,0,0-4.4-1.69,5.68,5.68,0,0,0-4.24,1.62,8.08,8.08,0,0,0-2,4.78Z"/><path class="cls-9" d="M435.3,349.55a6.13,6.13,0,0,1-2.43,4.95,8.39,8.39,0,0,1-2.81,1.38,13,13,0,0,1-3.64.48q-4.38,0-6.76-1.87a6.53,6.53,0,0,1-2.39-5.46h3.45a3.83,3.83,0,0,0,1.52,3.34,7.13,7.13,0,0,0,4.18,1.08,6.86,6.86,0,0,0,3.82-.95,3,3,0,0,0,1.43-2.58,2.66,2.66,0,0,0-.24-1.17,2.25,2.25,0,0,0-.84-.91,7.64,7.64,0,0,0-1.63-.75c-.7-.24-1.57-.49-2.63-.75l-2.28-.58-1.21-.3a12,12,0,0,1-1.39-.42,11.33,11.33,0,0,1-1.22-.56,4.52,4.52,0,0,1-1.81-1.79,5.23,5.23,0,0,1-.66-2.62,5.48,5.48,0,0,1,2.19-4.6,9.49,9.49,0,0,1,5.94-1.68,10.16,10.16,0,0,1,6.27,1.71,6,6,0,0,1,2.25,5.14h-3.49a3.33,3.33,0,0,0-1.39-3,6.73,6.73,0,0,0-3.82-.94,5.85,5.85,0,0,0-3.22.75,2.43,2.43,0,0,0-1.15,2.17,2.83,2.83,0,0,0,.2,1.17,1.76,1.76,0,0,0,.79.82,7.59,7.59,0,0,0,1.72.69c.75.22,1.75.46,3,.73l2.23.55c.63.17,1.19.34,1.67.51a8.7,8.7,0,0,1,1.29.58,10.66,10.66,0,0,1,1,.66,4.79,4.79,0,0,1,1.51,1.82A5.5,5.5,0,0,1,435.3,349.55Z"/><path class="cls-9" d="M456.41,349.55A6.06,6.06,0,0,1,454,354.5a8.39,8.39,0,0,1-2.81,1.38,13,13,0,0,1-3.64.48q-4.38,0-6.76-1.87a6.53,6.53,0,0,1-2.38-5.46h3.44a3.82,3.82,0,0,0,1.53,3.34,7.07,7.07,0,0,0,4.17,1.08,6.86,6.86,0,0,0,3.82-.95,2.94,2.94,0,0,0,1.44-2.58,2.66,2.66,0,0,0-.25-1.17,2.25,2.25,0,0,0-.84-.91,7.41,7.41,0,0,0-1.63-.75c-.69-.24-1.57-.49-2.63-.75l-2.27-.58-1.22-.3a12,12,0,0,1-1.39-.42,10.35,10.35,0,0,1-1.21-.56,4.46,4.46,0,0,1-1.81-1.79,5.14,5.14,0,0,1-.67-2.62,5.48,5.48,0,0,1,2.19-4.6,9.53,9.53,0,0,1,5.94-1.68,10.16,10.16,0,0,1,6.27,1.71,6,6,0,0,1,2.25,5.14H452a3.34,3.34,0,0,0-1.4-3,6.7,6.7,0,0,0-3.82-.94,5.85,5.85,0,0,0-3.22.75,2.43,2.43,0,0,0-1.15,2.17,3,3,0,0,0,.2,1.17,1.81,1.81,0,0,0,.79.82,7.7,7.7,0,0,0,1.73.69c.75.22,1.74.46,3,.73l2.23.55q.94.26,1.68.51a9,9,0,0,1,1.28.58,10.82,10.82,0,0,1,1,.66,4.85,4.85,0,0,1,1.5,1.82A5.5,5.5,0,0,1,456.41,349.55Z"/><path class="cls-9" d="M490.86,355.66a8.21,8.21,0,0,1-1.22.33,7.12,7.12,0,0,1-1.26.11q-3,0-3-3.14a9.39,9.39,0,0,1-3.38,2.61,10.87,10.87,0,0,1-4.35.79,7.2,7.2,0,0,1-5-1.61,5.65,5.65,0,0,1-1.81-4.45q0-5.67,7.55-6.64l3.05-.4a6.51,6.51,0,0,0,2.91-.86,2.32,2.32,0,0,0,.8-2q0-3.72-4.77-3.72a6.4,6.4,0,0,0-3.91,1,3.87,3.87,0,0,0-1.35,3.31h-3.4a6.49,6.49,0,0,1,2.36-5.35,10.18,10.18,0,0,1,6.52-1.9,12.59,12.59,0,0,1,3.91.58,7.28,7.28,0,0,1,2.76,1.54,4,4,0,0,1,1.06,1.9,14.51,14.51,0,0,1,.26,3.1v10a3.66,3.66,0,0,0,.31,1.79,1.14,1.14,0,0,0,1.06.5,2.24,2.24,0,0,0,.93-.22Zm-5.66-11a8.07,8.07,0,0,1-.72.45,4.72,4.72,0,0,1-.82.31c-.33.08-.74.16-1.24.24l-1.94.24a22.69,22.69,0,0,0-2.94.53,6.53,6.53,0,0,0-1.88.77,2.58,2.58,0,0,0-1,1.15,4.21,4.21,0,0,0-.29,1.61,3.31,3.31,0,0,0,1.13,2.65,4.53,4.53,0,0,0,3.07,1,7.66,7.66,0,0,0,3.42-.76,6.3,6.3,0,0,0,2.5-2.07,3.48,3.48,0,0,0,.57-1.19,8.6,8.6,0,0,0,.13-1.77Z"/><path class="cls-9" d="M508.75,355.75V343.17a18.94,18.94,0,0,0-.22-3.1,4.9,4.9,0,0,0-.76-2,2.82,2.82,0,0,0-1.39-1.06,7.19,7.19,0,0,0-5.5.55,4.86,4.86,0,0,0-2.07,2.37,5.35,5.35,0,0,0-.35,1,11.13,11.13,0,0,0-.23,1.15c-.06.41-.1.89-.13,1.44s0,1.17,0,1.88v10.32h-3.49V334.41h3.27v3.32a9.07,9.07,0,0,1,3.13-3,8.83,8.83,0,0,1,4.24-.93,8.1,8.1,0,0,1,3.76.84,5.31,5.31,0,0,1,2.38,2.3,5.94,5.94,0,0,1,.44,1,5.67,5.67,0,0,1,.27,1.06c.06.38.1.81.13,1.28s0,1.05,0,1.73v13.78Z"/><path class="cls-9" d="M533.66,355.75v-3.14q-2,3.75-7,3.75a10.13,10.13,0,0,1-4.08-.79,9,9,0,0,1-3.14-2.25,9.78,9.78,0,0,1-2-3.56,15,15,0,0,1-.69-4.7,14.64,14.64,0,0,1,.69-4.64,10.45,10.45,0,0,1,1.94-3.56,8.47,8.47,0,0,1,3-2.27,9.61,9.61,0,0,1,4-.8,9.22,9.22,0,0,1,4.28.93,6.55,6.55,0,0,1,2.79,2.65v-11h3.49v29.42Zm-.13-10.58a9.91,9.91,0,0,0-1.75-6.25,5.91,5.91,0,0,0-4.92-2.21,5.78,5.78,0,0,0-4.77,2.21,9.41,9.41,0,0,0-1.77,6,9.89,9.89,0,0,0,1.79,6.2,6.29,6.29,0,0,0,9.65.09A9.47,9.47,0,0,0,533.53,345.17Z"/><path class="cls-9" d="M308.09,406.22V376.81H328.5v3.36H312v9.36h15.41v3.14H312v10.2h16.69v3.35Z"/><path class="cls-9" d="M347.31,406.22V393.65a17.89,17.89,0,0,0-.22-3.1,5,5,0,0,0-.75-2A2.87,2.87,0,0,0,345,387.5a7.19,7.19,0,0,0-5.5.55,4.93,4.93,0,0,0-2.08,2.37,6.81,6.81,0,0,0-.35,1,11.21,11.21,0,0,0-.22,1.15c-.06.41-.1.89-.13,1.44s-.05,1.17-.05,1.88v10.31h-3.49V384.89h3.27v3.31a9.14,9.14,0,0,1,3.14-3,8.83,8.83,0,0,1,4.24-.93,8.09,8.09,0,0,1,3.75.84,5.33,5.33,0,0,1,2.39,2.3,8.31,8.31,0,0,1,.44,1,5.67,5.67,0,0,1,.27,1.06c.05.38.1.81.13,1.28s0,1,0,1.72v13.78Z"/><path class="cls-9" d="M358.93,396.42q.22,7.51,6.62,7.51a8.65,8.65,0,0,0,2.19-.27,5.83,5.83,0,0,0,1.83-.79,3.92,3.92,0,0,0,1.26-1.39,4.29,4.29,0,0,0,.47-2.06h3.44a6.75,6.75,0,0,1-.75,3.25,6.91,6.91,0,0,1-2,2.32,8.88,8.88,0,0,1-2.94,1.39,13.35,13.35,0,0,1-3.58.46,11,11,0,0,1-4.21-.77,9,9,0,0,1-3.2-2.19,9.34,9.34,0,0,1-2-3.49,14.33,14.33,0,0,1-.7-4.63,14.07,14.07,0,0,1,.73-4.64,10.92,10.92,0,0,1,2-3.65,9.3,9.3,0,0,1,3.16-2.36,9.58,9.58,0,0,1,4-.84,10,10,0,0,1,4.06.8,8.06,8.06,0,0,1,3,2.29,10.72,10.72,0,0,1,1.9,3.67,16.61,16.61,0,0,1,.66,4.86v.53Zm12.41-2.83a6.22,6.22,0,0,0-1.75-4.71,6,6,0,0,0-4.39-1.69,5.67,5.67,0,0,0-4.24,1.62,8.11,8.11,0,0,0-2,4.78Z"/><path class="cls-9" d="M390.69,387.89h-1.11a6.21,6.21,0,0,0-4.64,1.86,7.84,7.84,0,0,0-1,1.3,6.68,6.68,0,0,0-.64,1.62,12.22,12.22,0,0,0-.33,2.2q-.09,1.29-.09,3.09v8.26h-3.49V384.89h3.36v4.46a8.4,8.4,0,0,1,3-3.86,8.88,8.88,0,0,1,4.89-1.22Z"/><path class="cls-9" d="M412.24,403.88a21.46,21.46,0,0,1-.33,4.2,9.39,9.39,0,0,1-1.13,2.92,7.23,7.23,0,0,1-3.31,2.93,12.35,12.35,0,0,1-5.17,1,14.79,14.79,0,0,1-3.64-.42,8.83,8.83,0,0,1-2.83-1.22,5.8,5.8,0,0,1-1.83-2,5.45,5.45,0,0,1-.66-2.72H397a2.91,2.91,0,0,0,1.5,2.69,7.78,7.78,0,0,0,4,.89q3.31,0,4.77-1.64c1-1.09,1.49-2.87,1.55-5.34l.05-2.61a7.86,7.86,0,0,1-2.83,3,8.19,8.19,0,0,1-4,.89,9.18,9.18,0,0,1-3.84-.78,8.41,8.41,0,0,1-3-2.18,9.75,9.75,0,0,1-1.9-3.41,14.08,14.08,0,0,1-.66-4.46,14.43,14.43,0,0,1,.7-4.61,10.75,10.75,0,0,1,2-3.58,8.87,8.87,0,0,1,6.91-3.16,7.89,7.89,0,0,1,3.86.89,8.42,8.42,0,0,1,2.9,2.82v-3.09h3.31Zm-3.53-8.7a9.3,9.3,0,0,0-1.66-5.89,6,6,0,0,0-9.21.06,9.49,9.49,0,0,0-1.68,6,9.71,9.71,0,0,0,1.66,6,5.41,5.41,0,0,0,4.57,2.19,5.49,5.49,0,0,0,4.62-2.27A10,10,0,0,0,408.71,395.18Z"/><path class="cls-9" d="M427.79,405.56c-.45,1.15-.81,2.1-1.11,2.85s-.55,1.38-.77,1.88-.41.9-.57,1.21-.34.6-.51.86a5,5,0,0,1-4.55,2.43,10.59,10.59,0,0,1-1.31-.08c-.39-.06-.83-.15-1.3-.27V411.3q.88.27,1.35.36a4.94,4.94,0,0,0,1,.09,2.23,2.23,0,0,0,1.59-.64,6.66,6.66,0,0,0,1.15-1.53,12.2,12.2,0,0,0,.81-1.85c.23-.65.42-1.2.6-1.64l-8.48-21.2h4l6.27,17.45,6.05-17.45h3.71Z"/><path class="cls-9" d="M327.61,456.7a3.07,3.07,0,0,1-.57-1.3,15.08,15.08,0,0,1-.27-2.19l-.08-2.29a11.08,11.08,0,0,0-.84-4.35,3.9,3.9,0,0,0-2.17-2.1,8,8,0,0,0-1.72-.38,21.15,21.15,0,0,0-2.25-.11H312V456.7h-3.89V427.29h13.43a18.33,18.33,0,0,1,3.36.26,7.11,7.11,0,0,1,2.47,1,7.32,7.32,0,0,1,3.53,6.71,7.86,7.86,0,0,1-1.28,4.57,6.88,6.88,0,0,1-3.75,2.68,5.64,5.64,0,0,1,1.87.68,4.32,4.32,0,0,1,1.31,1.21,5.82,5.82,0,0,1,.81,1.9,16.72,16.72,0,0,1,.42,2.74l.22,2.56a26.94,26.94,0,0,0,.42,3.1,3.37,3.37,0,0,0,.73,1.59l.4.39ZM327,435.64a4.52,4.52,0,0,0-1.55-3.83c-1-.77-2.74-1.17-5.12-1.17H312V440.8h7.29a21.85,21.85,0,0,0,3.46-.2,6.56,6.56,0,0,0,2.1-.68A4.58,4.58,0,0,0,327,435.64Z"/><path class="cls-9" d="M338.74,446.9q.22,7.52,6.63,7.51a8.76,8.76,0,0,0,2.19-.27,5.83,5.83,0,0,0,1.83-.79,3.92,3.92,0,0,0,1.26-1.39,4.29,4.29,0,0,0,.46-2.06h3.45a6.75,6.75,0,0,1-.75,3.25,7.14,7.14,0,0,1-2,2.32,8.88,8.88,0,0,1-2.94,1.39,13.35,13.35,0,0,1-3.58.46,11.09,11.09,0,0,1-4.22-.77,9,9,0,0,1-3.2-2.19,9.46,9.46,0,0,1-2-3.49,15.28,15.28,0,0,1,0-9.27,11,11,0,0,1,2-3.65,9.4,9.4,0,0,1,3.16-2.36,9.58,9.58,0,0,1,4-.84,10,10,0,0,1,4.07.8,8,8,0,0,1,3,2.29,10.55,10.55,0,0,1,1.9,3.67,16.27,16.27,0,0,1,.67,4.86v.53Zm12.42-2.83a6.26,6.26,0,0,0-1.75-4.71,6,6,0,0,0-4.39-1.69,5.67,5.67,0,0,0-4.24,1.62,8.05,8.05,0,0,0-2,4.78Z"/><path class="cls-9" d="M376,450.5a6.22,6.22,0,0,1-.64,2.82,6.35,6.35,0,0,1-1.79,2.14,8.58,8.58,0,0,1-2.81,1.38,13,13,0,0,1-3.64.48q-4.38,0-6.76-1.87A6.54,6.54,0,0,1,358,450h3.44a3.83,3.83,0,0,0,1.53,3.34,7.07,7.07,0,0,0,4.17,1.08,6.86,6.86,0,0,0,3.82-1,3,3,0,0,0,1.44-2.59,2.72,2.72,0,0,0-.25-1.17,2.29,2.29,0,0,0-.84-.9,6.59,6.59,0,0,0-1.63-.75c-.69-.24-1.57-.49-2.63-.75l-2.27-.58-1.22-.31a9.06,9.06,0,0,1-1.39-.42,8.9,8.9,0,0,1-1.21-.55,4.46,4.46,0,0,1-1.81-1.79,5.15,5.15,0,0,1-.67-2.63,5.47,5.47,0,0,1,2.19-4.59,9.53,9.53,0,0,1,5.94-1.68,10.22,10.22,0,0,1,6.27,1.7,6.05,6.05,0,0,1,2.25,5.15h-3.48a3.34,3.34,0,0,0-1.4-3,6.7,6.7,0,0,0-3.82-.94,5.85,5.85,0,0,0-3.22.75,2.43,2.43,0,0,0-1.15,2.17,3,3,0,0,0,.2,1.17,1.86,1.86,0,0,0,.79.82,7.7,7.7,0,0,0,1.73.69c.75.22,1.74.46,3,.73l2.23.55a17.14,17.14,0,0,1,1.68.51,9,9,0,0,1,1.28.58,9.17,9.17,0,0,1,1,.66,4.9,4.9,0,0,1,1.5,1.81A5.53,5.53,0,0,1,376,450.5Z"/><path class="cls-9" d="M399.92,446q0,5.34-2.7,8.32a9.59,9.59,0,0,1-7.51,3,11.27,11.27,0,0,1-4.32-.79,9.29,9.29,0,0,1-3.32-2.26,9.87,9.87,0,0,1-2.1-3.55,14.45,14.45,0,0,1-.72-4.7,14.08,14.08,0,0,1,.72-4.64,10.18,10.18,0,0,1,2.1-3.56,9.37,9.37,0,0,1,3.29-2.27,11.18,11.18,0,0,1,4.31-.8,11,11,0,0,1,4.28.8,9,9,0,0,1,3.23,2.25,10,10,0,0,1,2,3.53A14.57,14.57,0,0,1,399.92,446Zm-3.58,0a9.5,9.5,0,0,0-1.79-6.11,6.59,6.59,0,0,0-9.89.05,9.27,9.27,0,0,0-1.84,6.06,9.4,9.4,0,0,0,1.84,6.2,6.18,6.18,0,0,0,5,2.22,5.86,5.86,0,0,0,4.86-2.24A9.71,9.71,0,0,0,396.34,446Z"/><path class="cls-9" d="M419,456.7v-3.31a8.67,8.67,0,0,1-3.2,3,9,9,0,0,1-4.22.95,8.34,8.34,0,0,1-3.8-.82,5.15,5.15,0,0,1-2.38-2.27,7.74,7.74,0,0,1-.69-2.05,17.28,17.28,0,0,1-.2-2.94V435.37H408v12.54a18.1,18.1,0,0,0,.23,3.12,5.19,5.19,0,0,0,.72,2,2.76,2.76,0,0,0,1.4,1.06,6.85,6.85,0,0,0,2.2.31,6.13,6.13,0,0,0,3.56-1.08,5.78,5.78,0,0,0,2.19-2.94,9.17,9.17,0,0,0,.35-1.86c.06-.67.09-1.62.09-2.82V435.37h3.49V456.7Z"/><path class="cls-9" d="M439.14,438.37H438a6.17,6.17,0,0,0-4.63,1.86,7.39,7.39,0,0,0-1,1.3,7.21,7.21,0,0,0-.64,1.61,12.49,12.49,0,0,0-.33,2.21q-.09,1.29-.09,3.09v8.26h-3.48V435.37h3.35v4.46a8.42,8.42,0,0,1,3-3.86,8.82,8.82,0,0,1,4.88-1.22Z"/><path class="cls-9" d="M460.52,448.93a8.45,8.45,0,0,1-.73,3.56,7.84,7.84,0,0,1-2,2.65,8.61,8.61,0,0,1-3,1.63,11.66,11.66,0,0,1-3.64.55,11.25,11.25,0,0,1-4.22-.75,8.47,8.47,0,0,1-3.18-2.19,9.86,9.86,0,0,1-2-3.46,13.84,13.84,0,0,1-.71-4.55,15.54,15.54,0,0,1,.71-4.82,10.3,10.3,0,0,1,2-3.66,8.93,8.93,0,0,1,3.22-2.32,10.69,10.69,0,0,1,4.29-.82,12.42,12.42,0,0,1,3.62.51,8.64,8.64,0,0,1,2.89,1.46,6.53,6.53,0,0,1,1.9,2.36,7.25,7.25,0,0,1,.69,3.22H456.8a4.19,4.19,0,0,0-.44-2,4.33,4.33,0,0,0-1.21-1.45,5.27,5.27,0,0,0-1.77-.89,7.2,7.2,0,0,0-2.1-.29,5.85,5.85,0,0,0-4.83,2.23,9.59,9.59,0,0,0-1.79,6.14,9.92,9.92,0,0,0,1.7,6.13,5.63,5.63,0,0,0,4.75,2.24,6.73,6.73,0,0,0,2.25-.38,5.63,5.63,0,0,0,1.85-1.06,4.7,4.7,0,0,0,1.26-1.7,5.59,5.59,0,0,0,.47-2.34Z"/><path class="cls-9" d="M467.27,446.9q.23,7.52,6.63,7.51a8.76,8.76,0,0,0,2.19-.27,5.83,5.83,0,0,0,1.83-.79,3.92,3.92,0,0,0,1.26-1.39,4.29,4.29,0,0,0,.46-2.06h3.45a6.75,6.75,0,0,1-.75,3.25,7.14,7.14,0,0,1-2,2.32,8.88,8.88,0,0,1-2.94,1.39,13.35,13.35,0,0,1-3.58.46,11.09,11.09,0,0,1-4.22-.77,9,9,0,0,1-3.2-2.19,9.46,9.46,0,0,1-2-3.49,14.33,14.33,0,0,1-.71-4.63,14.07,14.07,0,0,1,.73-4.64,11,11,0,0,1,2.05-3.65,9.4,9.4,0,0,1,3.16-2.36,9.58,9.58,0,0,1,4-.84,10.05,10.05,0,0,1,4.07.8,8.11,8.11,0,0,1,3,2.29,10.55,10.55,0,0,1,1.9,3.67,16.27,16.27,0,0,1,.67,4.86v.53Zm12.41-2.83a6.26,6.26,0,0,0-1.74-4.71,6,6,0,0,0-4.39-1.69,5.71,5.71,0,0,0-4.25,1.62,8.11,8.11,0,0,0-2,4.78Z"/><path class="cls-9" d="M504.51,450.5a6.22,6.22,0,0,1-.64,2.82,6.35,6.35,0,0,1-1.79,2.14,8.58,8.58,0,0,1-2.81,1.38,13,13,0,0,1-3.64.48q-4.38,0-6.76-1.87a6.54,6.54,0,0,1-2.38-5.46h3.44a3.83,3.83,0,0,0,1.53,3.34,7.07,7.07,0,0,0,4.17,1.08,6.86,6.86,0,0,0,3.82-1,3,3,0,0,0,1.44-2.59,2.72,2.72,0,0,0-.25-1.17,2.29,2.29,0,0,0-.84-.9,6.59,6.59,0,0,0-1.63-.75c-.69-.24-1.57-.49-2.63-.75l-2.27-.58-1.22-.31a9.06,9.06,0,0,1-1.39-.42,8.9,8.9,0,0,1-1.21-.55,4.54,4.54,0,0,1-1.82-1.79A5.24,5.24,0,0,1,487,441a5.47,5.47,0,0,1,2.19-4.59,9.53,9.53,0,0,1,5.94-1.68,10.22,10.22,0,0,1,6.27,1.7,6.05,6.05,0,0,1,2.25,5.15h-3.49a3.33,3.33,0,0,0-1.39-3,6.7,6.7,0,0,0-3.82-.94,5.85,5.85,0,0,0-3.22.75,2.43,2.43,0,0,0-1.15,2.17,3,3,0,0,0,.2,1.17,1.86,1.86,0,0,0,.79.82,7.7,7.7,0,0,0,1.73.69c.75.22,1.74.46,3,.73l2.23.55a17.14,17.14,0,0,1,1.68.51,9,9,0,0,1,1.28.58,9.17,9.17,0,0,1,1,.66,4.9,4.9,0,0,1,1.5,1.81A5.53,5.53,0,0,1,504.51,450.5Z"/><path class="cls-9" d="M308.27,507.18V477.77h3.84v29.41Z"/><path class="cls-9" d="M332.74,507.18V494.61a18.94,18.94,0,0,0-.22-3.1,4.85,4.85,0,0,0-.76-2,2.77,2.77,0,0,0-1.39-1.06,7.19,7.19,0,0,0-5.5.55,4.77,4.77,0,0,0-2.07,2.37,4.91,4.91,0,0,0-.35,1,10.62,10.62,0,0,0-.23,1.15c-.05.41-.1.89-.13,1.44s0,1.17,0,1.88v10.31h-3.49V485.85h3.27v3.31a9.12,9.12,0,0,1,3.13-3,8.83,8.83,0,0,1,4.24-.93,8.1,8.1,0,0,1,3.76.84,5.26,5.26,0,0,1,2.38,2.3,5.58,5.58,0,0,1,.44,1,5.48,5.48,0,0,1,.27,1.06c.06.38.1.81.13,1.28s.05,1,.05,1.72v13.78Z"/><path class="cls-9" d="M358.58,501a6.06,6.06,0,0,1-.65,2.81,6.15,6.15,0,0,1-1.78,2.15,8.37,8.37,0,0,1-2.81,1.37,12.67,12.67,0,0,1-3.64.49c-2.92,0-5.17-.62-6.76-1.88a6.53,6.53,0,0,1-2.39-5.45H344a3.82,3.82,0,0,0,1.52,3.33,7.05,7.05,0,0,0,4.18,1.09,6.86,6.86,0,0,0,3.82-.95,3,3,0,0,0,1.43-2.59,2.72,2.72,0,0,0-.24-1.17,2.23,2.23,0,0,0-.84-.9,6.77,6.77,0,0,0-1.63-.75c-.69-.24-1.57-.49-2.63-.76l-2.27-.57-1.22-.31a12,12,0,0,1-1.39-.42,9.64,9.64,0,0,1-1.22-.55,4.52,4.52,0,0,1-1.81-1.79,5.27,5.27,0,0,1-.66-2.63,5.47,5.47,0,0,1,2.19-4.59,9.49,9.49,0,0,1,5.94-1.68,10.22,10.22,0,0,1,6.27,1.7,6.05,6.05,0,0,1,2.25,5.15H354.2a3.36,3.36,0,0,0-1.39-3,6.81,6.81,0,0,0-3.82-.93,5.85,5.85,0,0,0-3.22.75,2.42,2.42,0,0,0-1.15,2.17,2.86,2.86,0,0,0,.2,1.17,1.81,1.81,0,0,0,.79.82,8,8,0,0,0,1.73.69c.75.22,1.74.46,3,.73l2.23.55a16.1,16.1,0,0,1,1.67.51,9.91,9.91,0,0,1,1.29.57,10.72,10.72,0,0,1,1,.67,4.83,4.83,0,0,1,1.51,1.81A5.53,5.53,0,0,1,358.58,501Z"/><path class="cls-9" d="M372.05,507.36l-1.33.13c-.32,0-.78.05-1.37.05-1.88,0-3.19-.33-3.93-1s-1.1-1.87-1.1-3.63V488.76h-3.58v-2.91h3.58v-6.32h3.49v6.32h4.24v2.91h-4.24v12.56a15.74,15.74,0,0,0,.08,1.72,2.14,2.14,0,0,0,.36,1,1.22,1.22,0,0,0,.73.46,5.61,5.61,0,0,0,1.21.11,8.71,8.71,0,0,0,.91,0,5.28,5.28,0,0,0,.95-.22Z"/><path class="cls-9" d="M376.55,482.05v-4.28H380v4.28Zm0,25.13V485.85H380v21.33Z"/><path class="cls-9" d="M395,507.36l-1.32.13c-.33,0-.78.05-1.37.05-1.89,0-3.2-.33-3.93-1s-1.11-1.87-1.11-3.63V488.76h-3.57v-2.91h3.57v-6.32h3.49v6.32H395v2.91h-4.24v12.56a13.3,13.3,0,0,0,.09,1.72,2.25,2.25,0,0,0,.35,1,1.25,1.25,0,0,0,.73.46,5.71,5.71,0,0,0,1.22.11,8.52,8.52,0,0,0,.9,0,5.09,5.09,0,0,0,.95-.22Z"/><path class="cls-9" d="M413.74,507.18v-3.31a8.76,8.76,0,0,1-3.2,3,9.08,9.08,0,0,1-4.22.95,8.34,8.34,0,0,1-3.8-.82,5.15,5.15,0,0,1-2.38-2.27,7.4,7.4,0,0,1-.69-2,17.36,17.36,0,0,1-.2-2.94V485.85h3.49v12.54a19.3,19.3,0,0,0,.22,3.12,5.19,5.19,0,0,0,.73,2,2.74,2.74,0,0,0,1.39,1.06,7,7,0,0,0,2.21.31,6.07,6.07,0,0,0,3.56-1.09,5.64,5.64,0,0,0,2.18-2.93,8.52,8.52,0,0,0,.36-1.86c.06-.68.09-1.62.09-2.83V485.85H417v21.33Z"/><path class="cls-9" d="M431.76,507.36l-1.32.13c-.33,0-.78.05-1.37.05-1.89,0-3.2-.33-3.93-1s-1.11-1.87-1.11-3.63V488.76h-3.58v-2.91H424v-6.32h3.49v6.32h4.24v2.91h-4.24v12.56a13.3,13.3,0,0,0,.09,1.72,2.25,2.25,0,0,0,.35,1,1.25,1.25,0,0,0,.73.46,5.71,5.71,0,0,0,1.22.11,8.52,8.52,0,0,0,.9,0,5.09,5.09,0,0,0,.95-.22Z"/><path class="cls-9" d="M438.56,497.38q.22,7.5,6.63,7.51a8.7,8.7,0,0,0,2.19-.27,6.07,6.07,0,0,0,1.83-.79,3.86,3.86,0,0,0,1.26-1.4,4.22,4.22,0,0,0,.46-2.05h3.45a6.75,6.75,0,0,1-.75,3.25,7,7,0,0,1-2,2.32,9.08,9.08,0,0,1-2.94,1.39,13.35,13.35,0,0,1-3.58.46,11.09,11.09,0,0,1-4.22-.77,9.12,9.12,0,0,1-3.2-2.19,9.46,9.46,0,0,1-2-3.49,15.28,15.28,0,0,1,0-9.27,11,11,0,0,1,2.05-3.65,9.4,9.4,0,0,1,3.16-2.36,9.58,9.58,0,0,1,4-.84,10,10,0,0,1,4.07.8,8.14,8.14,0,0,1,3.05,2.29,10.62,10.62,0,0,1,1.89,3.67,16.27,16.27,0,0,1,.67,4.86v.53ZM451,494.55a6.25,6.25,0,0,0-1.75-4.71,6,6,0,0,0-4.39-1.69,5.67,5.67,0,0,0-4.24,1.62,8.05,8.05,0,0,0-2,4.78Z"/><path class="cls-1" d="M339.88,206.31q-15.64,0-25-9.17t-9.34-24.72q0-14.61,10-24.25t24.6-9.65q4.5,0,12,2.51l2.33.78a3.89,3.89,0,0,0,3.51-.26,3.14,3.14,0,0,0,1.42-3h7.26V163.6h-10.2v-1.39q-.94-14.86-14.56-14.87-8.69,0-12.84,8.56-3.21,6.57-3.2,16.17,0,25.5,15.73,25.51,8.13,0,12.45-5.19a15.53,15.53,0,0,0,3.55-10.29v-3.29h10.8v3.29a22.38,22.38,0,0,1-6.14,15.56Q354.41,206.32,339.88,206.31Z"/><path class="cls-1" d="M418.9,178.56h-15v11.1q0,7.05,5.36,7.05h7.44v8.56H376.88v-8.56h3.72q5.28,0,5.28-7.06V155.44q0-7-5.28-7.06h-3.72v-8.56H415q28,0,28,18.76Q443,178.56,418.9,178.56ZM412.33,148h-3.2q-5.26,0-5.27,7.09v15.13h7.35q11.67,0,11.67-11.59,0-5-2.77-7.82C418.27,148.89,415.67,148,412.33,148Z"/><path class="cls-1" d="M447.69,205.27l-.08-8.56h3.72q5.26,0,5.27-7.06V155.44q0-7-5.27-7.06h-3.72v-8.56h65.71v25.51H503.2v-4.82a11.89,11.89,0,0,0-3.33-8.82,12,12,0,0,0-8.86-3.31H479.94q-5.26,0-5.27,7.06v12.74h6q5,0,5-6v-4.06h8.13v28.27h-8.13v-4.06q0-6-5.19-6.05h-5.79v13.34a26.15,26.15,0,0,0,.09,2.84c.4,2.82,2.12,4.22,5.17,4.22H492a12.11,12.11,0,0,0,7.84-2.71,8.68,8.68,0,0,0,3.36-7.1v-8.09h10.12v26.46Z"/><path class="cls-1" d="M580.93,207.26q-6.23,0-10.12-2.85a12.13,12.13,0,0,1-4.93-9.08l-.43-4c-.12-1.21-.29-3-.52-5.45a10.54,10.54,0,0,0-1.64-5,8.62,8.62,0,0,0-7.52-3.55h-6.49v12.31c0,2.53.32,4.19,1,5a5.29,5.29,0,0,0,4.33,2.06H558v8.56H522.22v-8.56h3.72q5.26,0,5.27-7.06V155.44q0-7-5.27-7.06h-3.72v-8.56H565a31.65,31.65,0,0,1,15.91,3.89q8.39,4.66,8.38,13.06,0,7.86-4.23,12c-2.54,2.47-6.46,4.12-11.76,4.92l-3.37.52,2.85.69q5.54,1.4,8,4.67c1.62,2.19,2.42,5.25,2.42,9.17v4.15q0,5.26,3.12,5.27,3.63,0,3.63-6.66v-2.24h5.79v2.85A15,15,0,0,1,591.6,203,14.16,14.16,0,0,1,580.93,207.26ZM557.72,148h-3.19q-5.25,0-5.25,7.09V169h7.32a13.79,13.79,0,0,0,8.87-2.68c2.46-1.9,3.7-4.67,3.7-8.3a9,9,0,0,0-3.45-7.52A12.25,12.25,0,0,0,557.72,148Z"/><path class="cls-1" d="M599.51,205.27l-.08-8.56h3.72q5.26,0,5.27-7.06V155.44q0-7-5.27-7.06h-3.72v-8.56h36.66v8.56h-3.72q-5.28,0-5.28,7.06v34.21q0,7.07,5.28,7.06h3.72v8.56Z"/></svg>